<svg width="520" height="393" viewBox="0 0 520 393" fill="none" xmlns="http://www.w3.org/2000/svg">
<g clip-path="url(#clip0_4_64)">
<path d="M299.661 19.1274C304.121 28.6306 294.67 31.3224 283.843 36.416C273.016 41.5095 264.914 47.0761 260.454 37.5729C255.994 28.0697 252.375 9.20765 267.691 2.00188C283.535 -5.45212 295.201 9.62422 299.661 19.1274Z" fill="#2F2E41"/>
<path d="M277.572 37.8164C285.621 37.8164 292.147 31.2831 292.147 23.224C292.147 15.1648 285.621 8.63156 277.572 8.63156C269.522 8.63156 262.996 15.1648 262.996 23.224C262.996 31.2831 269.522 37.8164 277.572 37.8164Z" fill="#FFB8B8"/>
<path d="M349.779 87.9384C349.275 87.2789 348.77 86.6313 348.26 86.0015C347.601 85.1816 346.939 84.3874 346.272 83.619C338.718 74.8913 330.683 69.3956 321.835 68.8074H321.823L321.692 68.7955L304.062 86.0015L298.068 91.8477L298.199 92.1686L301.433 100.231H358.099C355.546 95.9884 352.768 91.8851 349.779 87.9384Z" fill="#2F2E41"/>
<path d="M261.722 29.0988L266.94 26.6442L266.213 19.1087L269.702 25.3448L272.195 24.1716L271.771 19.7759L273.806 23.4136L292.336 14.6962C290.595 10.9883 287.455 8.12439 283.606 6.73454C279.757 5.3447 275.513 5.54274 271.81 7.28511L269.124 8.54851C265.421 10.2909 262.56 13.4349 261.172 17.2888C259.784 21.1427 259.982 25.3909 261.722 29.0988Z" fill="#2F2E41"/>
<path d="M382.477 293.975H78.1465C75.5505 293.972 73.0617 292.938 71.2261 291.1C69.3905 289.263 68.3579 286.771 68.355 284.172V101.089C68.3571 99.1847 69.1135 97.3592 70.4583 96.0128C71.8031 94.6664 73.6264 93.909 75.5282 93.9068H384.971C386.906 93.909 388.76 94.6795 390.129 96.0492C391.497 97.4189 392.266 99.276 392.268 101.213V284.172C392.265 286.771 391.233 289.263 389.397 291.1C387.561 292.938 385.073 293.972 382.477 293.975Z" fill="#F2F2F2"/>
<path d="M87.6412 284.172H372.982C375.5 284.172 377.915 283.17 379.696 281.388C381.476 279.605 382.477 277.187 382.477 274.666V119.273C382.477 116.752 381.476 114.334 379.696 112.551C377.915 110.768 375.5 109.767 372.982 109.767H87.6412C85.1231 109.767 82.708 110.768 80.9274 112.551C79.1468 114.334 78.1465 116.752 78.1465 119.273V274.666C78.1465 277.187 79.1468 279.605 80.9274 281.388C82.708 283.17 85.1231 284.172 87.6412 284.172Z" fill="white"/>
<path d="M392.132 100.528H68.2176V95.5372C68.2213 92.9295 69.2581 90.4298 71.1004 88.5864C72.9427 86.7431 75.4401 85.7066 78.0447 85.7045H382.305C384.909 85.7066 387.407 86.743 389.249 88.5864C391.091 90.4297 392.128 92.9295 392.132 95.5372V100.528Z" fill="#F76B15"/>
<path d="M86.0769 95.676C87.4807 95.676 88.6187 94.5366 88.6187 93.1311C88.6187 91.7255 87.4807 90.5862 86.0769 90.5862C84.673 90.5862 83.535 91.7255 83.535 93.1311C83.535 94.5366 84.673 95.676 86.0769 95.676Z" fill="white"/>
<path d="M95.7252 95.676C97.129 95.676 98.2671 94.5366 98.2671 93.1311C98.2671 91.7255 97.129 90.5862 95.7252 90.5862C94.3214 90.5862 93.1833 91.7255 93.1833 93.1311C93.1833 94.5366 94.3214 95.676 95.7252 95.676Z" fill="white"/>
<path d="M105.374 95.676C106.777 95.676 107.915 94.5366 107.915 93.1311C107.915 91.7255 106.777 90.5862 105.374 90.5862C103.97 90.5862 102.832 91.7255 102.832 93.1311C102.832 94.5366 103.97 95.676 105.374 95.676Z" fill="white"/>
<path d="M239.215 250.472H213.698C212.203 250.471 210.77 249.875 209.713 248.817C208.656 247.759 208.062 246.324 208.06 244.828V219.281C208.062 217.784 208.656 216.349 209.713 215.291C210.77 214.233 212.203 213.638 213.698 213.636H239.215C240.71 213.638 242.143 214.233 243.199 215.291C244.256 216.349 244.851 217.784 244.853 219.281V244.828C244.851 246.324 244.256 247.759 243.199 248.817C242.143 249.875 240.71 250.471 239.215 250.472ZM213.698 214.825C212.518 214.826 211.387 215.296 210.552 216.131C209.718 216.966 209.248 218.099 209.247 219.281V244.828C209.248 246.009 209.718 247.142 210.552 247.977C211.387 248.813 212.518 249.283 213.698 249.284H239.215C240.395 249.283 241.526 248.813 242.361 247.977C243.195 247.142 243.664 246.009 243.666 244.828V219.281C243.664 218.099 243.195 216.966 242.361 216.131C241.526 215.296 240.395 214.826 239.215 214.825H213.698Z" fill="#CCCCCC"/>
<path d="M234.171 243.343H218.742C218.27 243.342 217.817 243.154 217.484 242.82C217.15 242.486 216.962 242.033 216.962 241.56V222.548C216.962 222.076 217.15 221.623 217.484 221.288C217.817 220.954 218.27 220.766 218.742 220.766H229.922C230.327 220.766 230.721 220.905 231.037 221.159L235.286 224.577C235.494 224.744 235.662 224.955 235.777 225.196C235.892 225.437 235.952 225.7 235.951 225.967V241.56C235.951 242.033 235.763 242.486 235.429 242.82C235.095 243.154 234.643 243.342 234.171 243.343ZM218.742 221.954C218.585 221.954 218.434 222.017 218.323 222.128C218.211 222.24 218.149 222.391 218.148 222.548V241.56C218.149 241.718 218.211 241.869 218.323 241.98C218.434 242.092 218.585 242.154 218.742 242.154H234.171C234.328 242.154 234.479 242.092 234.59 241.98C234.702 241.869 234.764 241.718 234.764 241.56V225.967C234.765 225.878 234.745 225.79 234.706 225.71C234.668 225.63 234.612 225.559 234.543 225.504L230.293 222.085C230.188 222 230.057 221.954 229.922 221.954H218.742Z" fill="#CCCCCC"/>
<path d="M231.204 229.084H221.709C221.552 229.084 221.401 229.021 221.289 228.91C221.178 228.798 221.116 228.647 221.116 228.489C221.116 228.332 221.178 228.181 221.289 228.069C221.401 227.958 221.552 227.895 221.709 227.895H231.204C231.361 227.895 231.512 227.958 231.623 228.069C231.735 228.181 231.797 228.332 231.797 228.489C231.797 228.647 231.735 228.798 231.623 228.91C231.512 229.021 231.361 229.084 231.204 229.084Z" fill="#CCCCCC"/>
<path d="M231.204 232.648H221.709C221.552 232.648 221.401 232.586 221.289 232.474C221.178 232.363 221.116 232.212 221.116 232.054C221.116 231.897 221.178 231.746 221.289 231.634C221.401 231.523 221.552 231.46 221.709 231.46H231.204C231.361 231.46 231.512 231.523 231.623 231.634C231.735 231.746 231.797 231.897 231.797 232.054C231.797 232.212 231.735 232.363 231.623 232.474C231.512 232.586 231.361 232.648 231.204 232.648Z" fill="#CCCCCC"/>
<path d="M231.204 236.213H221.709C221.552 236.213 221.401 236.151 221.289 236.039C221.178 235.928 221.116 235.777 221.116 235.619C221.116 235.461 221.178 235.31 221.289 235.199C221.401 235.088 221.552 235.025 221.709 235.025H231.204C231.361 235.025 231.512 235.088 231.623 235.199C231.735 235.31 231.797 235.461 231.797 235.619C231.797 235.777 231.735 235.928 231.623 236.039C231.512 236.151 231.361 236.213 231.204 236.213Z" fill="#CCCCCC"/>
<path d="M299.744 250.472H274.227C272.732 250.471 271.299 249.875 270.243 248.817C269.186 247.759 268.591 246.324 268.589 244.828V219.281C268.591 217.784 269.186 216.349 270.243 215.291C271.299 214.233 272.732 213.638 274.227 213.636H299.744C301.239 213.638 302.672 214.233 303.729 215.291C304.785 216.349 305.38 217.784 305.382 219.281V244.828C305.38 246.324 304.785 247.759 303.729 248.817C302.672 249.875 301.239 250.471 299.744 250.472ZM274.227 214.825C273.047 214.826 271.916 215.296 271.081 216.131C270.247 216.966 269.778 218.099 269.776 219.281V244.828C269.778 246.009 270.247 247.142 271.081 247.977C271.916 248.813 273.047 249.283 274.227 249.284H299.744C300.924 249.283 302.055 248.813 302.89 247.977C303.724 247.142 304.194 246.009 304.195 244.828V219.281C304.194 218.099 303.724 216.966 302.89 216.131C302.055 215.296 300.924 214.826 299.744 214.825H274.227Z" fill="#CCCCCC"/>
<path d="M295.294 238.59H278.678C278.206 238.589 277.753 238.401 277.419 238.067C277.086 237.733 276.898 237.28 276.897 236.807V227.301C276.898 226.829 277.086 226.376 277.419 226.041C277.753 225.707 278.206 225.519 278.678 225.519H295.294C295.766 225.519 296.218 225.707 296.552 226.041C296.886 226.376 297.073 226.829 297.074 227.301V236.807C297.073 237.28 296.886 237.733 296.552 238.067C296.218 238.401 295.766 238.589 295.294 238.59ZM278.678 226.707C278.52 226.707 278.369 226.77 278.258 226.881C278.147 226.993 278.084 227.144 278.084 227.301V236.807C278.084 236.965 278.147 237.116 278.258 237.227C278.369 237.339 278.52 237.401 278.678 237.401H295.294C295.451 237.401 295.602 237.339 295.713 237.227C295.824 237.116 295.887 236.965 295.887 236.807V227.301C295.887 227.144 295.824 226.993 295.713 226.881C295.602 226.77 295.451 226.707 295.294 226.707H278.678Z" fill="#CCCCCC"/>
<path d="M286.986 233.622C286.652 233.622 286.325 233.529 286.042 233.353L277.176 227.805C277.043 227.721 276.948 227.588 276.913 227.435C276.878 227.281 276.905 227.12 276.988 226.987C277.072 226.853 277.205 226.758 277.358 226.723C277.511 226.687 277.672 226.714 277.805 226.797L286.671 232.345C286.766 232.404 286.875 232.435 286.986 232.435C287.097 232.435 287.206 232.404 287.3 232.345L296.166 226.797C296.299 226.714 296.46 226.687 296.613 226.723C296.766 226.758 296.899 226.853 296.983 226.987C297.066 227.12 297.093 227.281 297.058 227.435C297.023 227.588 296.928 227.721 296.795 227.805L287.93 233.353C287.646 233.529 287.319 233.622 286.986 233.622Z" fill="#CCCCCC"/>
<path d="M178.686 250.472H153.169C151.674 250.471 150.241 249.875 149.184 248.817C148.127 247.759 147.533 246.324 147.531 244.828V219.281C147.533 217.784 148.127 216.349 149.184 215.291C150.241 214.233 151.674 213.638 153.169 213.636H178.686C180.18 213.638 181.613 214.233 182.67 215.291C183.727 216.349 184.322 217.784 184.323 219.281V244.828C184.322 246.324 183.727 247.759 182.67 248.817C181.613 249.875 180.18 250.471 178.686 250.472ZM153.169 214.825C151.989 214.826 150.857 215.296 150.023 216.131C149.189 216.966 148.719 218.099 148.718 219.281V244.828C148.719 246.009 149.189 247.142 150.023 247.977C150.857 248.813 151.989 249.283 153.169 249.284H178.686C179.866 249.283 180.997 248.813 181.831 247.977C182.666 247.142 183.135 246.009 183.136 244.828V219.281C183.135 218.099 182.666 216.966 181.831 216.131C180.997 215.296 179.866 214.826 178.686 214.825H153.169Z" fill="#CCCCCC"/>
<path d="M174.235 238.59H157.619C157.147 238.589 156.695 238.401 156.361 238.067C156.027 237.733 155.84 237.28 155.839 236.807V227.301C155.84 226.829 156.027 226.376 156.361 226.041C156.695 225.707 157.147 225.519 157.619 225.519H174.235C174.707 225.519 175.16 225.707 175.493 226.041C175.827 226.376 176.015 226.829 176.015 227.301V236.807C176.015 237.28 175.827 237.733 175.493 238.067C175.16 238.401 174.707 238.589 174.235 238.59ZM157.619 226.707C157.462 226.707 157.311 226.77 157.2 226.881C157.089 226.993 157.026 227.144 157.026 227.301V236.807C157.026 236.965 157.089 237.116 157.2 237.227C157.311 237.339 157.462 237.401 157.619 237.401H174.235C174.392 237.401 174.543 237.339 174.655 237.227C174.766 237.116 174.828 236.965 174.829 236.807V227.301C174.828 227.144 174.766 226.993 174.655 226.881C174.543 226.77 174.392 226.707 174.235 226.707H157.619Z" fill="#CCCCCC"/>
<path d="M171.602 238.59H159.659C159.451 238.59 159.246 238.535 159.066 238.431C158.886 238.326 158.736 238.176 158.631 237.996C158.527 237.815 158.472 237.61 158.473 237.401C158.473 237.193 158.527 236.988 158.632 236.807L162.229 230.569C162.333 230.388 162.483 230.238 162.663 230.134C162.844 230.03 163.048 229.975 163.257 229.975C163.465 229.975 163.67 230.03 163.85 230.134C164.031 230.238 164.18 230.388 164.285 230.569L166.608 234.598L167.954 232.264C168.058 232.083 168.208 231.933 168.388 231.829C168.569 231.725 168.773 231.67 168.982 231.67C169.19 231.67 169.395 231.725 169.575 231.829C169.756 231.933 169.905 232.083 170.01 232.264L172.63 236.807C172.734 236.988 172.789 237.193 172.789 237.401C172.789 237.61 172.734 237.815 172.63 237.996C172.525 238.176 172.375 238.326 172.195 238.431C172.015 238.535 171.81 238.59 171.602 238.59ZM171.602 237.401L168.982 232.858L167.122 236.083C167.07 236.174 166.995 236.249 166.905 236.301C166.814 236.353 166.712 236.38 166.608 236.38C166.504 236.38 166.401 236.353 166.311 236.301C166.221 236.249 166.146 236.174 166.094 236.083L163.257 231.163L159.66 237.401H171.602Z" fill="#CCCCCC"/>
<path d="M172.455 230.272C173.11 230.272 173.642 229.74 173.642 229.084C173.642 228.427 173.11 227.895 172.455 227.895C171.799 227.895 171.268 228.427 171.268 229.084C171.268 229.74 171.799 230.272 172.455 230.272Z" fill="#CCCCCC"/>
<path d="M456.239 385.085L448.963 385.084L445.502 356.989L456.24 356.989L456.239 385.085Z" fill="#FFB8B8"/>
<path d="M458.094 392.145L434.636 392.144V391.847C434.636 390.647 434.872 389.458 435.331 388.349C435.789 387.24 436.462 386.232 437.31 385.383C438.158 384.534 439.164 383.861 440.272 383.402C441.38 382.942 442.567 382.706 443.766 382.706H443.767L458.094 382.706L458.094 392.145Z" fill="#2F2E41"/>
<path d="M485.91 385.085L478.634 385.084L475.174 356.989L485.911 356.989L485.91 385.085Z" fill="#FFB8B8"/>
<path d="M487.765 392.145L464.307 392.144V391.847C464.307 390.647 464.543 389.458 465.002 388.349C465.461 387.24 466.133 386.232 466.981 385.383C467.829 384.534 468.835 383.861 469.943 383.402C471.051 382.942 472.238 382.706 473.437 382.706H473.438L487.766 382.706L487.765 392.145Z" fill="#2F2E41"/>
<path d="M483.729 372.905L476.991 370.853C476.489 370.701 476.042 370.403 475.708 369.998C475.374 369.593 475.167 369.098 475.112 368.576L468.83 308.969C468.825 308.897 468.793 308.829 468.741 308.78C468.688 308.731 468.618 308.703 468.546 308.703C468.474 308.696 468.402 308.718 468.345 308.763C468.289 308.809 468.252 308.874 468.243 308.946L457.721 366.695C457.657 367.046 457.524 367.38 457.33 367.678C457.135 367.976 456.883 368.232 456.588 368.431C456.293 368.631 455.961 368.769 455.612 368.838C455.263 368.907 454.904 368.906 454.556 368.834L445.944 367.058C445.313 366.926 444.75 366.57 444.359 366.055C443.969 365.541 443.777 364.903 443.819 364.258L450.219 269.606L493.621 264.918L487.171 370.51C487.13 371.189 486.831 371.826 486.337 372.293C485.843 372.759 485.19 373.02 484.51 373.022C484.245 373.022 483.982 372.982 483.729 372.905Z" fill="#2F2E41"/>
<path d="M483.688 187.179C491.737 187.179 498.263 180.646 498.263 172.587C498.263 164.527 491.737 157.994 483.688 157.994C475.638 157.994 469.113 164.527 469.113 172.587C469.113 180.646 475.638 187.179 483.688 187.179Z" fill="#FFB8B8"/>
<path d="M450.152 270.162L459.563 210.838C460.063 207.683 461.229 204.672 462.982 202.004C464.735 199.336 467.036 197.072 469.731 195.364C472.426 193.655 475.454 192.54 478.612 192.094C481.771 191.648 484.988 191.881 488.05 192.776C493.404 194.327 497.988 197.819 500.907 202.572C503.826 207.325 504.87 212.997 503.836 218.48L493.99 271.459L450.152 270.162Z" fill="#F76B15"/>
<path d="M487.711 280.777C488.439 280.295 489.053 279.66 489.509 278.916C489.966 278.171 490.253 277.336 490.352 276.468C490.451 275.6 490.359 274.721 490.081 273.893C489.804 273.065 489.349 272.308 488.748 271.675L498.478 252.81L487.52 253.981L479.961 271.715C478.965 272.797 478.401 274.206 478.374 275.677C478.348 277.147 478.861 278.576 479.816 279.693C480.771 280.81 482.103 281.537 483.558 281.737C485.013 281.937 486.491 281.595 487.711 280.777Z" fill="#FFB8B8"/>
<path d="M489.795 268.347C489.257 268.271 488.754 268.033 488.355 267.663L484.632 264.22C484.23 263.846 483.952 263.357 483.836 262.82C483.72 262.283 483.772 261.723 483.984 261.217L491.424 243.56L490.369 208.673C490.521 207.552 490.892 206.471 491.461 205.493C492.03 204.515 492.786 203.659 493.685 202.974C494.585 202.289 495.611 201.788 496.704 201.5C497.797 201.212 498.936 201.143 500.056 201.296C501.176 201.448 502.255 201.821 503.231 202.392C504.207 202.962 505.062 203.72 505.745 204.621C506.429 205.523 506.928 206.55 507.215 207.645C507.501 208.74 507.57 209.88 507.416 211.001L509.221 232.932C509.769 239.588 507.885 246.217 503.917 251.586L492.314 267.29C492.091 267.592 491.807 267.843 491.48 268.028C491.153 268.212 490.792 268.326 490.418 268.362C490.211 268.381 490.001 268.377 489.795 268.347Z" fill="#F76B15"/>
<path d="M399.754 164.636C399.913 165.495 400.258 166.308 400.765 167.019C401.272 167.73 401.928 168.321 402.688 168.751C403.447 169.18 404.292 169.438 405.161 169.505C406.031 169.573 406.905 169.448 407.722 169.141L421.279 185.466L424.474 174.908L411.11 161.023C410.504 159.684 409.427 158.614 408.086 158.016C406.744 157.419 405.229 157.334 403.829 157.78C402.43 158.225 401.242 159.169 400.491 160.433C399.739 161.696 399.477 163.192 399.754 164.636Z" fill="#FFB8B8"/>
<path d="M410.374 171.403C410.654 170.937 411.069 170.567 411.564 170.342L416.183 168.253C416.684 168.028 417.242 167.962 417.781 168.065C418.32 168.167 418.815 168.433 419.198 168.826L432.537 182.57L465.037 195.199C466.009 195.776 466.859 196.539 467.536 197.445C468.214 198.351 468.707 199.382 468.986 200.479C469.266 201.575 469.327 202.717 469.166 203.837C469.005 204.957 468.624 206.035 468.047 207.008C467.469 207.981 466.706 208.83 465.8 209.508C464.895 210.186 463.865 210.678 462.769 210.956C461.673 211.235 460.533 211.295 459.414 211.132C458.296 210.969 457.22 210.587 456.249 210.008L435.374 203.121C429.038 201.032 423.676 196.71 420.285 190.958L410.364 174.138C410.174 173.815 410.053 173.455 410.011 173.082C409.968 172.708 410.005 172.33 410.118 171.972C410.181 171.773 410.267 171.582 410.374 171.403Z" fill="#F76B15"/>
<path opacity="0.1" d="M495.51 223.186L494.916 242.198L483.984 261.216L493.112 240.022L495.51 223.186Z" fill="black"/>
<path d="M482.018 175.329C481.102 175.448 480.175 175.231 479.408 174.717C478.64 174.203 478.085 173.428 477.846 172.535C477.615 171.508 477.109 170.563 476.382 169.802C475.655 169.04 474.735 168.491 473.721 168.214C471.047 167.602 467.78 168.862 465.82 166.834C465.401 166.371 465.097 165.815 464.935 165.211C464.772 164.608 464.755 163.974 464.886 163.363C465.246 161.392 466.655 159.903 468.187 158.712C471.412 156.218 475.314 154.758 479.382 154.523C481.488 154.462 483.596 154.567 485.685 154.837C487.873 154.976 490.037 155.371 492.132 156.017C494.519 156.919 496.64 158.408 498.3 160.348C499.96 162.288 501.104 164.615 501.628 167.115C502.107 169.623 502.033 172.205 501.412 174.681C500.791 177.157 499.638 179.468 498.033 181.452C496.112 183.847 493.634 185.736 490.817 186.953C490.146 187.27 489.377 187.309 488.677 187.061C486.922 186.363 487.209 184.186 488.009 182.735C488.865 181.181 490.183 179.677 489.494 177.786C489.149 176.91 488.486 176.196 487.638 175.786C485.894 174.896 483.942 175.106 482.067 175.323L482.018 175.329Z" fill="#2F2E41"/>
<path d="M394.884 183.57H214.483C211.887 183.567 209.398 182.533 207.563 180.695C205.727 178.857 204.694 176.365 204.691 173.766V135.148C204.694 132.549 205.727 130.057 207.563 128.219C209.398 126.382 211.887 125.348 214.483 125.345H394.884C397.48 125.348 399.968 126.382 401.804 128.219C403.639 130.057 404.672 132.549 404.675 135.148V173.766C404.672 176.365 403.639 178.857 401.804 180.695C399.968 182.533 397.48 183.567 394.884 183.57Z" fill="white"/>
<path d="M394.883 183.867H214.483C211.808 183.864 209.244 182.799 207.353 180.905C205.461 179.012 204.398 176.444 204.395 173.766V135.148C204.398 132.47 205.461 129.903 207.353 128.01C209.244 126.116 211.808 125.051 214.483 125.048H394.883C397.558 125.051 400.122 126.116 402.014 128.01C403.905 129.903 404.969 132.47 404.972 135.148V173.766C404.969 176.444 403.905 179.012 402.014 180.905C400.122 182.799 397.558 183.864 394.883 183.867ZM214.483 126.236C212.123 126.239 209.86 127.179 208.192 128.849C206.523 130.52 205.584 132.785 205.581 135.148V173.766C205.584 176.129 206.523 178.394 208.192 180.065C209.86 181.736 212.123 182.676 214.483 182.678H394.883C397.243 182.676 399.506 181.736 401.175 180.065C402.843 178.394 403.782 176.129 403.785 173.766V135.148C403.782 132.785 402.843 130.52 401.175 128.849C399.506 127.179 397.243 126.239 394.883 126.236H214.483Z" fill="#3F3D56"/>
<path d="M372.927 174.064H236.439C233.844 174.061 231.355 173.027 229.519 171.189C227.683 169.351 226.651 166.859 226.648 164.26V144.06C226.651 141.461 227.683 138.969 229.519 137.131C231.355 135.294 233.844 134.26 236.439 134.257H372.927C375.523 134.26 378.012 135.294 379.847 137.131C381.683 138.969 382.715 141.461 382.718 144.06V164.26C382.715 166.859 381.683 169.351 379.847 171.189C378.012 173.027 375.523 174.061 372.927 174.064Z" fill="#F2F2F2"/>
<path d="M265.811 163.176C272.278 163.176 277.521 157.927 277.521 151.452C277.521 144.978 272.278 139.729 265.811 139.729C259.344 139.729 254.101 144.978 254.101 151.452C254.101 157.927 259.344 163.176 265.811 163.176Z" fill="#FF6584"/>
<path d="M364.445 172.88L347.917 159.002L331.674 145.363C331.245 145.003 330.703 144.806 330.144 144.807C329.584 144.808 329.043 145.007 328.616 145.369L312.425 159.07L308.471 162.417L302.508 157.41L284.386 142.194C283.958 141.834 283.416 141.637 282.857 141.638C282.297 141.64 281.756 141.838 281.329 142.2L263.266 157.486L244.919 173.013C244.826 173.091 244.76 173.197 244.729 173.314C244.698 173.432 244.703 173.557 244.745 173.671C244.787 173.786 244.863 173.884 244.963 173.954C245.063 174.024 245.182 174.061 245.304 174.06L282.919 173.988L294.825 173.965L294.709 174.064L330.2 173.995L364.065 173.93C364.187 173.93 364.305 173.892 364.405 173.822C364.504 173.752 364.58 173.653 364.622 173.538C364.663 173.424 364.668 173.299 364.637 173.181C364.605 173.064 364.538 172.959 364.445 172.88Z" fill="#3F3D56"/>
<path d="M519.407 393H405.469C405.312 393 405.161 392.937 405.05 392.826C404.938 392.715 404.876 392.563 404.876 392.406C404.876 392.248 404.938 392.097 405.05 391.986C405.161 391.874 405.312 391.812 405.469 391.812H519.407C519.564 391.812 519.715 391.874 519.826 391.986C519.937 392.097 520 392.248 520 392.406C520 392.563 519.937 392.715 519.826 392.826C519.715 392.937 519.564 393 519.407 393Z" fill="#CCCCCC"/>
<path d="M358.461 78.3729C357.987 77.6018 357.361 76.9354 356.621 76.4145C355.882 75.8935 355.044 75.5289 354.159 75.3428C353.834 75.2746 353.505 75.2329 353.174 75.2181L307.961 34.746C307.072 33.8321 305.888 33.2654 304.62 33.1478C304.37 33.119 304.117 33.1111 303.866 33.124C302.823 33.1715 301.816 33.5222 300.969 34.1334C300.122 34.7446 299.471 35.5896 299.095 36.5653C298.72 37.541 298.637 38.605 298.856 39.6272C299.075 40.6494 299.587 41.5855 300.329 42.3211L317.639 57.4298L346.064 82.2347C346.088 82.7019 346.157 83.1656 346.272 83.619C346.612 84.9326 347.343 86.1116 348.368 86.9997C349.393 87.8878 350.663 88.4431 352.01 88.5919C353.239 88.7356 354.483 88.5297 355.601 87.9978C356.486 87.583 357.272 86.981 357.903 86.2332C357.968 86.156 358.028 86.0847 358.087 86.0015C358.917 84.9189 359.397 83.6087 359.464 82.2456C359.531 80.8826 359.181 79.5316 358.461 78.3729Z" fill="#FFB8B8"/>
<path d="M281.126 117.377L280.705 100.231L280.349 86.0015L280.105 76.0439L279.625 56.6337C279.53 55.5945 279.134 54.6055 278.487 53.7874C277.84 52.9693 276.969 52.3575 275.98 52.0267C274.992 51.696 273.928 51.6605 272.92 51.9247C271.912 52.1889 271.002 52.7414 270.302 53.5146C270.137 53.6912 269.988 53.8821 269.857 54.0849C269.126 55.1325 268.798 56.4087 268.931 57.6794L269.988 86.0015L270.516 100.231L271.192 118.382C270.997 118.648 270.821 118.928 270.664 119.219C270.242 120.02 269.987 120.899 269.915 121.802C269.842 122.705 269.954 123.613 270.243 124.471C270.544 125.371 271.033 126.197 271.676 126.895C272.32 127.592 273.103 128.145 273.976 128.517C274.848 128.89 275.789 129.072 276.737 129.054C277.686 129.036 278.619 128.816 279.476 128.41C280.472 127.939 281.336 127.229 281.993 126.344C282.65 125.459 283.079 124.425 283.242 123.335C283.405 122.244 283.297 121.13 282.928 120.091C282.559 119.052 281.94 118.12 281.126 117.377Z" fill="#FFB8B8"/>
<path d="M321.835 68.8074L317.639 57.4299L310.851 39C310.361 37.659 309.576 36.4457 308.553 35.4501C307.531 34.4545 306.298 33.7021 304.946 33.2488C304.839 33.2132 304.727 33.1775 304.62 33.1478C303.31 32.7497 301.929 32.6402 300.573 32.8269C299.217 33.0135 297.917 33.4919 296.763 34.2291L273.898 48.7496C271.804 50.0764 270.307 52.1661 269.724 54.5774C269.14 56.9887 269.516 59.5327 270.771 61.6719C273.63 66.6221 276.746 71.4193 280.105 76.0439C282.77 79.674 287.731 80.0602 288.591 86.0015H305.45L322.517 70.6611L321.835 68.8074Z" fill="#CCCCCC"/>
<path d="M60.0335 207.858C67.6277 207.858 73.7841 201.695 73.7841 194.091C73.7841 186.488 67.6277 180.324 60.0335 180.324C52.4392 180.324 46.2829 186.488 46.2829 194.091C46.2829 201.695 52.4392 207.858 60.0335 207.858Z" fill="#A0616A"/>
<path d="M93.7913 184.615C93.9268 184.723 94.0582 184.837 94.1853 184.958C94.817 185.554 95.3158 186.277 95.6491 187.079C95.9824 187.881 96.1426 188.745 96.1192 189.613C96.0959 190.482 95.8894 191.336 95.5135 192.119C95.1376 192.902 94.6006 193.597 93.9378 194.158C93.7833 194.287 93.6221 194.409 93.4549 194.522L94.3855 225.978C94.412 227.008 94.1062 228.019 93.5134 228.861C92.9207 229.703 92.0726 230.331 91.095 230.652L91.0383 230.664L65.5278 233.384C64.8342 233.458 64.1329 233.394 63.4644 233.195C62.7959 232.996 62.1733 232.666 61.6327 232.225C61.0921 231.783 60.6442 231.239 60.3148 230.624C59.9854 230.008 59.7811 229.334 59.7136 228.639C59.6461 227.944 59.7168 227.242 59.9216 226.575C60.1264 225.907 60.4612 225.287 60.9068 224.75C61.3524 224.212 61.8998 223.769 62.5175 223.445C63.1353 223.12 63.8111 222.922 64.5058 222.861L82.6908 221.257L85.8358 194.016C85.6301 193.833 85.4374 193.637 85.2592 193.427C84.2732 192.259 83.756 190.765 83.8082 189.237C83.8603 187.708 84.4781 186.253 85.5414 185.155C86.6048 184.057 88.0379 183.393 89.5625 183.293C91.087 183.194 92.5942 183.665 93.7913 184.615Z" fill="#A0616A"/>
<path d="M82.6805 385.693H89.5446L92.8096 359.187H82.6793L82.6805 385.693Z" fill="#A0616A"/>
<path d="M80.93 383.449L94.447 383.449C95.5782 383.449 96.6989 383.672 97.7441 384.105C98.7892 384.539 99.7388 385.174 100.539 385.975C101.339 386.776 101.973 387.726 102.406 388.773C102.839 389.819 103.062 390.941 103.062 392.073V392.353L80.9304 392.354L80.93 383.449Z" fill="#2F2E41"/>
<path d="M14.4594 376.192L20.3568 379.707L36.7074 358.605L28.003 353.417L14.4594 376.192Z" fill="#A0616A"/>
<path d="M14.1015 373.367L25.7157 380.291C26.6877 380.87 27.5367 381.636 28.2132 382.543C28.8897 383.451 29.381 384.483 29.659 385.581C29.9371 386.679 29.9964 387.821 29.8337 388.942C29.6709 390.063 29.2893 391.14 28.7105 392.113L28.5673 392.354L9.55135 381.019L14.1015 373.367Z" fill="#2F2E41"/>
<path d="M91.164 376.331H83.4782C82.8558 376.332 82.2552 376.102 81.7925 375.685C81.3298 375.269 81.0378 374.695 80.973 374.075L73.2246 301.153C73.2051 300.97 73.1257 300.798 72.9988 300.664C72.872 300.53 72.7046 300.442 72.5225 300.412C72.3405 300.383 72.1539 300.415 71.9915 300.502C71.8291 300.589 71.7 300.728 71.6241 300.896L57.6457 331.885L32.8979 372.288C32.5775 372.805 32.0816 373.191 31.5009 373.372C30.9202 373.554 30.2935 373.52 29.7356 373.277L19.849 368.922C19.5221 368.778 19.2295 368.566 18.9907 368.3C18.7518 368.034 18.5722 367.721 18.4636 367.38C18.355 367.039 18.32 366.679 18.3609 366.324C18.4018 365.969 18.5177 365.626 18.7008 365.319L41.451 327.181L48.4282 295.047C46.2338 281.112 55.6413 260.394 55.7367 260.186L55.7833 260.085L81.6966 249.945L81.8266 250.104C92.046 283.68 98.2733 319.814 93.6753 374.02C93.6186 374.649 93.3299 375.234 92.8656 375.661C92.4013 376.089 91.7947 376.327 91.164 376.331Z" fill="#2F2E41"/>
<path d="M54.7393 263.48L54.6186 263.226C54.5609 263.105 48.7989 250.938 44.3571 237.933C43.5035 235.419 43.1808 232.754 43.4095 230.108C43.6381 227.462 44.4132 224.892 45.6856 222.561C46.9745 220.207 48.7378 218.146 50.8638 216.509C52.9898 214.872 55.4322 213.695 58.0363 213.053C62.5569 211.968 67.3164 212.545 71.4477 214.679C75.5789 216.813 78.8068 220.362 80.5435 224.68C84.0668 233.501 82.9439 242.916 81.8871 250.321L81.8661 250.469L81.7313 250.534L54.7393 263.48Z" fill="#3F3D56"/>
<path d="M76.7057 186.315H54.8713V176.786C59.6637 174.88 64.3533 173.259 67.1881 176.786C69.7123 176.786 72.1331 177.79 73.918 179.577C75.7029 181.364 76.7057 183.788 76.7057 186.315Z" fill="#2F2E41"/>
<path d="M53.6625 175.104C40.6095 175.104 36.956 191.485 36.956 200.726C36.956 205.88 39.284 207.723 42.9422 208.347L44.2341 201.449L47.26 208.644C48.2876 208.649 49.3671 208.629 50.4863 208.608L51.5122 206.493L53.8 208.571C62.963 208.584 70.3688 209.921 70.3688 200.726C70.3688 191.485 67.1646 175.104 53.6625 175.104Z" fill="#2F2E41"/>
<path d="M114.531 393H0.593423C0.436038 393 0.285098 392.937 0.173809 392.826C0.0625207 392.715 0 392.563 0 392.406C0 392.248 0.0625207 392.097 0.173809 391.986C0.285098 391.874 0.436038 391.812 0.593423 391.812H114.531C114.688 391.812 114.839 391.874 114.95 391.986C115.062 392.097 115.124 392.248 115.124 392.406C115.124 392.563 115.062 392.715 114.95 392.826C114.839 392.937 114.688 393 114.531 393Z" fill="#CCCCCC"/>
<path d="M116.673 197.532H91.1559C89.6613 197.53 88.2283 196.935 87.1715 195.877C86.1146 194.818 85.5201 193.384 85.5184 191.887V166.34C85.5201 164.843 86.1146 163.409 87.1715 162.351C88.2283 161.293 89.6613 160.697 91.1559 160.696H116.673C118.168 160.697 119.601 161.293 120.658 162.351C121.714 163.409 122.309 164.843 122.311 166.34V191.887C122.309 193.384 121.714 194.818 120.658 195.877C119.601 196.935 118.168 197.53 116.673 197.532Z" fill="white"/>
<path d="M116.673 197.532H91.1559C89.6613 197.53 88.2283 196.935 87.1715 195.877C86.1146 194.818 85.5201 193.384 85.5184 191.887V166.34C85.5201 164.843 86.1146 163.409 87.1715 162.351C88.2283 161.293 89.6613 160.697 91.1559 160.696H116.673C118.168 160.697 119.601 161.293 120.658 162.351C121.714 163.409 122.309 164.843 122.311 166.34V191.887C122.309 193.384 121.714 194.818 120.658 195.877C119.601 196.935 118.168 197.53 116.673 197.532ZM91.1559 161.884C89.9759 161.885 88.8446 162.355 88.0102 163.19C87.1759 164.026 86.7065 165.158 86.7052 166.34V191.887C86.7065 193.069 87.1759 194.201 88.0102 195.037C88.8446 195.872 89.9759 196.342 91.1559 196.343H116.673C117.853 196.342 118.984 195.872 119.819 195.037C120.653 194.201 121.122 193.069 121.124 191.887V166.34C121.122 165.158 120.653 164.026 119.819 163.19C118.984 162.355 117.853 161.885 116.673 161.884H91.1559Z" fill="#3F3D56"/>
<path d="M112.222 187.134H95.6066C95.1346 187.134 94.682 186.946 94.3483 186.612C94.0145 186.278 93.8268 185.825 93.8263 185.352V172.875C93.8268 172.403 94.0145 171.95 94.3483 171.616C94.682 171.281 95.1346 171.093 95.6066 171.093H100.284C100.588 171.092 100.888 171.169 101.153 171.318C101.419 171.466 101.642 171.681 101.8 171.941L103.105 174.064H112.222C112.694 174.064 113.147 174.252 113.481 174.586C113.814 174.92 114.002 175.373 114.003 175.846V185.352C114.002 185.825 113.814 186.278 113.481 186.612C113.147 186.946 112.694 187.134 112.222 187.134Z" fill="#F76B15"/>
<path d="M111.682 193.438C111.765 193.59 111.842 193.746 111.912 193.907C112.263 194.702 112.443 195.561 112.439 196.43C112.435 197.299 112.248 198.157 111.89 198.949C111.532 199.74 111.011 200.447 110.361 201.023C109.711 201.598 108.947 202.03 108.118 202.289C107.926 202.349 107.73 202.399 107.532 202.438L96.198 231.79C95.8233 232.75 95.1497 233.563 94.277 234.108C93.4044 234.654 92.3792 234.904 91.3538 234.82L91.2968 234.809L66.7311 227.405C66.0632 227.204 65.4417 226.872 64.9026 226.429C64.3635 225.986 63.9175 225.44 63.5902 224.823C63.2629 224.206 63.0609 223.531 62.9959 222.836C62.9308 222.14 63.004 221.439 63.2112 220.772C63.4183 220.105 63.7554 219.486 64.203 218.951C64.6505 218.415 65.1996 217.973 65.8185 217.651C66.4374 217.329 67.114 217.133 67.809 217.074C68.504 217.016 69.2038 217.095 69.8679 217.309L87.2495 222.896L100.706 199.011C100.587 198.763 100.486 198.507 100.403 198.245C99.947 196.785 100.049 195.208 100.69 193.819C101.33 192.43 102.464 191.33 103.869 190.73C105.275 190.131 106.853 190.077 108.297 190.577C109.74 191.077 110.947 192.097 111.682 193.438Z" fill="#A0616A"/>
</g>
<defs>
<clipPath id="clip0_4_64">
<rect width="520" height="393" fill="white"/>
</clipPath>
</defs>
</svg>
